<svg width="2000px" height="711px"
 viewBox="0.00 0.00 1459.76 519.31" xmlns="http://www.w3.org/2000/svg" xmlns:xlink="http://www.w3.org/1999/xlink">
<g id="graph0" class="graph" transform="scale(1.0 1.0) rotate(0) translate(4 515.31)">
<title>ContextMapGraph</title>
<polygon fill="white" stroke="transparent" points="-4,4 -4,-515.31 1455.76,-515.31 1455.76,4 -4,4"/>
<!-- CustomerManagementContext -->
<g id="node1" class="node">
<title>CustomerManagementContext</title>
<polygon fill="none" stroke="black" stroke-width="2" points="797.06,-287.81 809.65,-288.83 821.95,-289.95 833.91,-291.17 845.49,-292.49 856.63,-293.9 867.29,-295.4 877.43,-296.98 887,-298.64 895.98,-300.38 904.32,-302.18 912,-304.04 918.99,-305.96 925.27,-307.93 930.81,-309.95 935.61,-312.01 939.65,-314.1 942.93,-316.22 945.43,-318.36 947.17,-320.53 948.14,-322.7 948.35,-324.88 947.82,-327.07 946.56,-329.25 944.59,-331.43 941.93,-333.59 938.59,-335.73 934.62,-337.86 930.04,-339.95 924.87,-342.01 919.16,-344.04 912.93,-346.02 906.21,-347.96 899.05,-349.85 891.49,-351.68 883.54,-353.46 875.27,-355.17 866.69,-356.82 857.84,-358.4 848.77,-359.91 839.5,-361.34 830.06,-362.68 820.49,-363.95 810.82,-365.13 801.08,-366.21 791.29,-367.21 781.47,-368.11 771.66,-368.91 761.87,-369.61 752.12,-370.2 742.43,-370.69 732.82,-371.07 723.29,-371.34 713.87,-371.51 704.56,-371.55 695.38,-371.49 686.33,-371.31 677.41,-371.02 668.64,-370.61 660.03,-370.09 651.57,-369.45 643.28,-368.7 635.16,-367.83 627.21,-366.85 619.44,-365.77 611.85,-364.57 604.45,-363.27 597.25,-361.86 590.26,-360.36 583.48,-358.76 576.92,-357.07 570.6,-355.29 564.53,-353.42 558.71,-351.48 553.16,-349.46 547.91,-347.38 542.95,-345.23 538.32,-343.03 534.03,-340.77 530.1,-338.48 526.55,-336.14 523.39,-333.78 520.66,-331.4 518.36,-329 516.53,-326.59 515.18,-324.19 514.33,-321.79 514.01,-319.41 514.22,-317.05 515,-314.72 516.34,-312.43 518.28,-310.18 520.81,-307.99 523.96,-305.86 527.72,-303.79 532.11,-301.8 537.12,-299.89 542.76,-298.06 549.02,-296.32 555.9,-294.68 563.39,-293.15 571.46,-291.71 580.12,-290.39 589.33,-289.19 599.07,-288.1 609.32,-287.13 620.05,-286.29 631.22,-285.57 642.8,-284.98 654.74,-284.52 667.01,-284.19 679.57,-283.99 692.36,-283.91 705.33,-283.97 718.45,-284.15 731.65,-284.46 744.88,-284.89 758.09,-285.45 771.22,-286.12 784.23,-286.91 797.06,-287.81"/>
<text text-anchor="middle" x="721.03" y="-324.63" font-family="sans-serif" font-size="16.00">CustomerManagementContext</text>
</g>
<!-- ProductCatalogManagementContext -->
<g id="node2" class="node">
<title>ProductCatalogManagementContext</title>
<polygon fill="none" stroke="black" stroke-width="2" points="553.65,-218.42 542.41,-216.44 531.71,-214.37 521.58,-212.25 512.08,-210.06 503.23,-207.83 495.08,-205.55 487.67,-203.24 481.02,-200.9 475.16,-198.55 470.13,-196.19 465.93,-193.82 462.58,-191.46 460.1,-189.12 458.5,-186.79 457.78,-184.48 457.93,-182.21 458.97,-179.97 460.87,-177.78 463.63,-175.63 467.24,-173.53 471.66,-171.49 476.88,-169.51 482.87,-167.6 489.6,-165.75 497.04,-163.97 505.15,-162.26 513.89,-160.63 523.22,-159.07 533.11,-157.59 543.5,-156.19 554.36,-154.88 565.63,-153.64 577.27,-152.49 589.23,-151.42 601.46,-150.44 613.92,-149.54 626.56,-148.73 639.33,-148 652.19,-147.37 665.1,-146.81 678.01,-146.35 690.88,-145.98 703.67,-145.69 716.36,-145.5 728.89,-145.39 741.24,-145.38 753.39,-145.46 765.29,-145.63 776.93,-145.89 788.28,-146.24 799.32,-146.69 810.03,-147.23 820.4,-147.86 830.4,-148.6 840.04,-149.42 849.29,-150.34 858.14,-151.35 866.6,-152.46 874.65,-153.67 882.28,-154.96 889.5,-156.35 896.3,-157.83 902.68,-159.39 908.63,-161.05 914.15,-162.79 919.25,-164.61 923.92,-166.51 928.16,-168.48 931.96,-170.53 935.33,-172.64 938.26,-174.82 940.75,-177.05 942.8,-179.33 944.41,-181.66 945.56,-184.03 946.25,-186.43 946.49,-188.86 946.25,-191.3 945.54,-193.76 944.35,-196.21 942.68,-198.66 940.51,-201.1 937.84,-203.51 934.66,-205.89 930.98,-208.23 926.77,-210.52 922.04,-212.76 916.79,-214.92 911.01,-217.01 904.69,-219.02 897.85,-220.94 890.49,-222.76 882.6,-224.47 874.2,-226.07 865.28,-227.55 855.88,-228.9 845.98,-230.13 835.62,-231.21 824.81,-232.16 813.58,-232.96 801.94,-233.61 789.92,-234.11 777.55,-234.46 764.87,-234.65 751.91,-234.7 738.7,-234.58 725.29,-234.32 711.72,-233.9 698.03,-233.33 684.26,-232.61 670.48,-231.76 656.71,-230.76 643.03,-229.63 629.46,-228.37 616.08,-226.98 602.93,-225.48 590.06,-223.86 577.52,-222.15 565.36,-220.33 553.65,-218.42"/>
<text text-anchor="middle" x="721.03" y="-183.35" font-family="sans-serif" font-size="16.00">ProductCatalogManagementContext</text>
</g>
<!-- CustomerManagementContext&#45;&gt;ProductCatalogManagementContext -->
<g id="edge1" class="edge">
<title>CustomerManagementContext&#45;&gt;ProductCatalogManagementContext</title>
<path fill="none" stroke="black" stroke-width="2" d="M721.03,-284.13C721.03,-268.31 721.03,-250.38 721.03,-234.33"/>
<text text-anchor="middle" x="777.03" y="-256.07" font-family="sans-serif" font-size="12.00">Customer/Supplier</text>
<polygon fill="white" stroke="transparent" points="714.03,-225.33 714.03,-242.33 728.03,-242.33 728.03,-225.33 714.03,-225.33"/>
<text text-anchor="start" x="716.03" y="-230.73" font-family="sans-serif" font-size="12.00">D</text>
<polygon fill="white" stroke="transparent" points="714.03,-275.13 714.03,-292.13 728.03,-292.13 728.03,-275.13 714.03,-275.13"/>
<text text-anchor="start" x="716.03" y="-280.53" font-family="sans-serif" font-size="12.00">U</text>
</g>
<!-- OrdersManagementContext -->
<g id="node3" class="node">
<title>OrdersManagementContext</title>
<polygon fill="none" stroke="black" stroke-width="2" points="636.26,-84.42 625.14,-83.18 614.32,-81.83 603.85,-80.39 593.77,-78.87 584.13,-77.25 574.95,-75.56 566.28,-73.79 558.16,-71.96 550.61,-70.06 543.67,-68.11 537.36,-66.11 531.69,-64.07 526.7,-61.98 522.4,-59.87 518.79,-57.73 515.89,-55.57 513.7,-53.39 512.22,-51.21 511.45,-49.02 511.38,-46.83 512.01,-44.65 513.32,-42.48 515.29,-40.32 517.91,-38.19 521.16,-36.08 525.01,-34.01 529.44,-31.96 534.42,-29.96 539.92,-28 545.9,-26.08 552.34,-24.22 559.21,-22.41 566.46,-20.66 574.07,-18.97 581.99,-17.34 590.2,-15.79 598.66,-14.3 607.34,-12.89 616.2,-11.56 625.21,-10.3 634.34,-9.13 643.55,-8.05 652.83,-7.05 662.15,-6.15 671.47,-5.34 680.77,-4.62 690.04,-4 699.25,-3.49 708.38,-3.08 717.41,-2.77 726.34,-2.56 735.15,-2.47 743.82,-2.48 752.34,-2.6 760.71,-2.84 768.91,-3.18 776.94,-3.64 784.8,-4.21 792.47,-4.89 799.96,-5.69 807.25,-6.59 814.35,-7.6 821.24,-8.73 827.93,-9.95 834.41,-11.29 840.68,-12.72 846.73,-14.26 852.55,-15.88 858.14,-17.61 863.49,-19.42 868.6,-21.31 873.45,-23.28 878.03,-25.33 882.33,-27.44 886.35,-29.62 890.07,-31.85 893.47,-34.14 896.54,-36.46 899.26,-38.83 901.63,-41.22 903.62,-43.63 905.22,-46.06 906.41,-48.5 907.18,-50.93 907.51,-53.36 907.38,-55.76 906.78,-58.15 905.69,-60.5 904.11,-62.8 902.01,-65.06 899.4,-67.27 896.26,-69.41 892.58,-71.48 888.36,-73.47 883.6,-75.37 878.3,-77.19 872.46,-78.91 866.08,-80.52 859.18,-82.03 851.76,-83.43 843.84,-84.71 835.44,-85.86 826.57,-86.89 817.25,-87.8 807.52,-88.57 797.41,-89.22 786.93,-89.72 776.13,-90.1 765.04,-90.34 753.7,-90.44 742.16,-90.41 730.45,-90.25 718.61,-89.96 706.7,-89.53 694.76,-88.98 682.83,-88.3 670.97,-87.51 659.22,-86.59 647.64,-85.56 636.26,-84.42"/>
<text text-anchor="middle" x="721.03" y="-41.51" font-family="sans-serif" font-size="16.00">OrdersManagementContext</text>
</g>
<!-- ProductCatalogManagementContext&#45;&gt;OrdersManagementContext -->
<g id="edge2" class="edge">
<title>ProductCatalogManagementContext&#45;&gt;OrdersManagementContext</title>
<path fill="none" stroke="black" stroke-width="2" d="M721.03,-145.33C721.03,-128.08 721.03,-107.95 721.03,-90.36"/>
<text text-anchor="middle" x="755.53" y="-112.03" font-family="sans-serif" font-size="12.00">Partnership</text>
</g>
<!-- InventoryManagementContext -->
<g id="node4" class="node">
<title>InventoryManagementContext</title>
<polygon fill="none" stroke="black" stroke-width="2" points="1222.57,-88.8 1209.3,-89.31 1196.03,-89.7 1182.8,-89.96 1169.66,-90.1 1156.67,-90.11 1143.88,-89.98 1131.34,-89.73 1119.09,-89.35 1107.17,-88.84 1095.64,-88.2 1084.52,-87.44 1073.85,-86.55 1063.68,-85.53 1054.02,-84.4 1044.9,-83.15 1036.35,-81.79 1028.38,-80.31 1021.02,-78.73 1014.27,-77.06 1008.15,-75.28 1002.66,-73.42 997.8,-71.47 993.57,-69.44 989.98,-67.34 987,-65.18 984.65,-62.96 982.9,-60.69 981.74,-58.38 981.16,-56.02 981.14,-53.64 981.66,-51.24 982.71,-48.83 984.25,-46.41 986.29,-43.99 988.78,-41.57 991.71,-39.18 995.06,-36.81 998.81,-34.47 1002.93,-32.17 1007.41,-29.91 1012.23,-27.71 1017.36,-25.56 1022.79,-23.48 1028.51,-21.46 1034.49,-19.53 1040.72,-17.67 1047.2,-15.9 1053.9,-14.21 1060.81,-12.62 1067.93,-11.13 1075.25,-9.75 1082.76,-8.46 1090.45,-7.28 1098.32,-6.22 1106.35,-5.26 1114.55,-4.42 1122.91,-3.69 1131.43,-3.08 1140.09,-2.58 1148.89,-2.2 1157.84,-1.94 1166.91,-1.79 1176.11,-1.76 1185.42,-1.85 1194.83,-2.04 1204.34,-2.35 1213.93,-2.78 1223.58,-3.31 1233.29,-3.94 1243.03,-4.68 1252.78,-5.53 1262.52,-6.47 1272.24,-7.51 1281.9,-8.64 1291.48,-9.87 1300.95,-11.18 1310.28,-12.57 1319.44,-14.05 1328.39,-15.6 1337.11,-17.23 1345.56,-18.92 1353.71,-20.68 1361.51,-22.5 1368.93,-24.38 1375.94,-26.31 1382.49,-28.29 1388.56,-30.32 1394.12,-32.38 1399.12,-34.48 1403.53,-36.61 1407.33,-38.76 1410.48,-40.94 1412.97,-43.13 1414.77,-45.33 1415.85,-47.53 1416.2,-49.74 1415.8,-51.94 1414.65,-54.13 1412.74,-56.31 1410.05,-58.46 1406.6,-60.59 1402.39,-62.68 1397.42,-64.74 1391.71,-66.75 1385.26,-68.72 1378.11,-70.63 1370.27,-72.48 1361.78,-74.26 1352.65,-75.98 1342.93,-77.62 1332.66,-79.17 1321.87,-80.65 1310.6,-82.03 1298.91,-83.32 1286.84,-84.5 1274.44,-85.59 1261.76,-86.56 1248.85,-87.42 1235.77,-88.17 1222.57,-88.8"/>
<text text-anchor="middle" x="1189.03" y="-41.51" font-family="sans-serif" font-size="16.00">InventoryManagementContext</text>
</g>
<!-- ProductCatalogManagementContext&#45;&gt;InventoryManagementContext -->
<g id="edge3" class="edge">
<title>ProductCatalogManagementContext&#45;&gt;InventoryManagementContext</title>
<path fill="none" stroke="black" stroke-width="2" d="M821.15,-147.81C857.39,-134.58 898.8,-120.18 937.03,-108.63 968.63,-99.08 1002.78,-89.89 1035.43,-81.64"/>
<text text-anchor="middle" x="979.03" y="-112.03" font-family="sans-serif" font-size="12.00">Shared Kernel</text>
</g>
<!-- PaymentManagementContext -->
<g id="node5" class="node">
<title>PaymentManagementContext</title>
<polygon fill="none" stroke="black" stroke-width="2" points="162.38,-229.06 149.73,-228.28 137.31,-227.39 125.19,-226.39 113.4,-225.29 101.99,-224.09 91.02,-222.79 80.52,-221.4 70.54,-219.92 61.11,-218.36 52.27,-216.72 44.06,-215 36.49,-213.22 29.59,-211.37 23.38,-209.46 17.89,-207.5 13.12,-205.49 9.09,-203.43 5.79,-201.34 3.23,-199.22 1.41,-197.06 0.33,-194.89 -0.03,-192.7 0.32,-190.5 1.36,-188.3 3.09,-186.09 5.46,-183.89 8.48,-181.7 12.09,-179.53 16.29,-177.38 21.04,-175.26 26.3,-173.16 32.06,-171.1 38.26,-169.09 44.89,-167.12 51.9,-165.2 59.26,-163.34 66.95,-161.54 74.92,-159.8 83.14,-158.13 91.59,-156.53 100.22,-155.01 109.02,-153.58 117.96,-152.22 127,-150.96 136.12,-149.78 145.31,-148.71 154.53,-147.73 163.78,-146.85 173.02,-146.08 182.25,-145.41 191.45,-144.85 200.61,-144.4 209.71,-144.07 218.74,-143.85 227.7,-143.74 236.58,-143.75 245.37,-143.88 254.06,-144.12 262.65,-144.49 271.13,-144.97 279.5,-145.56 287.75,-146.28 295.88,-147.1 303.87,-148.05 311.74,-149.1 319.45,-150.26 327.02,-151.52 334.42,-152.89 341.66,-154.36 348.72,-155.93 355.58,-157.59 362.24,-159.34 368.68,-161.17 374.89,-163.07 380.84,-165.06 386.52,-167.11 391.91,-169.22 396.98,-171.39 401.73,-173.6 406.13,-175.86 410.14,-178.16 413.76,-180.49 416.95,-182.84 419.7,-185.2 421.98,-187.58 423.77,-189.95 425.04,-192.32 425.78,-194.68 425.96,-197.01 425.57,-199.32 424.59,-201.6 423.01,-203.83 420.8,-206.01 417.97,-208.14 414.5,-210.21 410.39,-212.21 405.64,-214.14 400.25,-215.99 394.21,-217.75 387.55,-219.42 380.27,-221 372.38,-222.47 363.9,-223.85 354.86,-225.11 345.28,-226.26 335.18,-227.3 324.6,-228.22 313.58,-229.03 302.14,-229.71 290.34,-230.27 278.21,-230.7 265.8,-231.01 253.15,-231.2 240.32,-231.26 227.36,-231.19 214.32,-231.01 201.24,-230.7 188.19,-230.27 175.22,-229.72 162.38,-229.06"/>
<text text-anchor="middle" x="220.03" y="-183.35" font-family="sans-serif" font-size="16.00">PaymentManagementContext</text>
</g>
<!-- PaymentManagementContext&#45;&gt;OrdersManagementContext -->
<g id="edge4" class="edge">
<title>PaymentManagementContext&#45;&gt;OrdersManagementContext</title>
<path fill="none" stroke="black" stroke-width="2" d="M337.49,-153.37C416.6,-131.29 520.63,-102.25 600.39,-79.99"/>
<text text-anchor="middle" x="541.03" y="-112.03" font-family="sans-serif" font-size="12.00">Customer/Supplier</text>
<polygon fill="white" stroke="transparent" points="593.39,-70.99 593.39,-87.99 607.39,-87.99 607.39,-70.99 593.39,-70.99"/>
<text text-anchor="start" x="595.39" y="-76.39" font-family="sans-serif" font-size="12.00">D</text>
<polygon fill="white" stroke="transparent" points="330.49,-144.37 330.49,-161.37 344.49,-161.37 344.49,-144.37 330.49,-144.37"/>
<text text-anchor="start" x="332.49" y="-149.77" font-family="sans-serif" font-size="12.00">U</text>
</g>
<!-- SecurityManagementContext -->
<g id="node6" class="node">
<title>SecurityManagementContext</title>
<polygon fill="none" stroke="black" stroke-width="2" points="787.77,-425.32 800.05,-426.24 812.06,-427.28 823.77,-428.42 835.12,-429.66 846.07,-431 856.57,-432.43 866.58,-433.94 876.06,-435.54 884.97,-437.22 893.29,-438.97 900.98,-440.79 908.01,-442.67 914.36,-444.6 920.02,-446.59 924.96,-448.62 929.18,-450.7 932.67,-452.81 935.42,-454.95 937.44,-457.11 938.72,-459.29 939.27,-461.49 939.1,-463.69 938.24,-465.9 936.68,-468.1 934.46,-470.29 931.6,-472.48 928.11,-474.64 924.03,-476.78 919.39,-478.89 914.21,-480.97 908.52,-483.02 902.37,-485.02 895.78,-486.97 888.78,-488.87 881.42,-490.72 873.72,-492.51 865.73,-494.23 857.47,-495.88 848.97,-497.47 840.27,-498.97 831.4,-500.4 822.4,-501.74 813.27,-503 804.07,-504.17 794.8,-505.24 785.5,-506.22 776.18,-507.1 766.87,-507.87 757.58,-508.54 748.33,-509.11 739.14,-509.56 730.01,-509.91 720.97,-510.14 712.02,-510.26 703.17,-510.26 694.42,-510.15 685.8,-509.92 677.3,-509.58 668.92,-509.11 660.68,-508.53 652.58,-507.84 644.62,-507.03 636.82,-506.11 629.16,-505.07 621.67,-503.92 614.35,-502.67 607.19,-501.31 600.22,-499.85 593.45,-498.29 586.87,-496.64 580.5,-494.89 574.36,-493.06 568.45,-491.15 562.79,-489.16 557.4,-487.1 552.29,-484.98 547.49,-482.8 543,-480.56 538.85,-478.28 535.06,-475.96 531.65,-473.61 528.64,-471.23 526.05,-468.83 523.91,-466.42 522.22,-464.01 521.03,-461.61 520.34,-459.21 520.17,-456.84 520.54,-454.49 521.48,-452.17 522.98,-449.9 525.07,-447.67 527.76,-445.51 531.06,-443.4 534.97,-441.36 539.49,-439.4 544.63,-437.52 550.38,-435.73 556.74,-434.02 563.7,-432.42 571.25,-430.92 579.37,-429.53 588.04,-428.25 597.25,-427.08 606.96,-426.03 617.15,-425.1 627.79,-424.3 638.84,-423.62 650.27,-423.07 662.03,-422.64 674.08,-422.34 686.37,-422.17 698.87,-422.13 711.52,-422.22 724.28,-422.43 737.08,-422.76 749.88,-423.22 762.63,-423.81 775.28,-424.5 787.77,-425.32"/>
<text text-anchor="middle" x="721.03" y="-462.95" font-family="sans-serif" font-size="16.00">SecurityManagementContext</text>
</g>
<!-- SecurityManagementContext&#45;&gt;CustomerManagementContext -->
<g id="edge5" class="edge">
<title>SecurityManagementContext&#45;&gt;CustomerManagementContext</title>
<path fill="none" stroke="black" stroke-width="2" d="M648.61,-423C643.24,-417.31 638.56,-411.05 635.03,-404.19 628.25,-390.99 632.82,-379.11 642.68,-368.91"/>
<text text-anchor="middle" x="710.53" y="-394.59" font-family="sans-serif" font-size="12.00"> &#160;&#160;&#160;&#160;&#160;&#160;&#160;&#160;&#160;&#160;&#160;&#160;&#160;&#160;&#160;&#160;&#160;&#160;&#160;&#160;&#160;&#160;&#160;&#160;&#160;&#160;&#160;&#160;&#160;&#160;&#160;&#160;&#160;&#160;&#160;&#160;&#160;&#160;&#160;</text>
<polygon fill="white" stroke="transparent" points="619.68,-358.91 619.68,-377.91 635.68,-377.91 635.68,-358.91 619.68,-358.91"/>
<polyline fill="none" stroke="black" points="635.68,-358.91 635.68,-377.91 "/>
<text text-anchor="start" x="622.68" y="-365.31" font-family="sans-serif" font-size="12.00">D</text>
<polygon fill="white" stroke="transparent" points="635.68,-358.91 635.68,-377.91 665.68,-377.91 665.68,-358.91 635.68,-358.91"/>
<polygon fill="none" stroke="black" points="635.68,-358.91 635.68,-377.91 665.68,-377.91 665.68,-358.91 635.68,-358.91"/>
<text text-anchor="start" x="638.68" y="-365.31" font-family="sans-serif" font-size="12.00">ACL</text>
<polygon fill="white" stroke="transparent" points="624.61,-413 624.61,-432 640.61,-432 640.61,-413 624.61,-413"/>
<polyline fill="none" stroke="black" points="640.61,-413 640.61,-432 "/>
<text text-anchor="start" x="627.61" y="-419.4" font-family="sans-serif" font-size="12.00">U</text>
<polygon fill="white" stroke="transparent" points="640.61,-413 640.61,-432 673.61,-432 673.61,-413 640.61,-413"/>
<polygon fill="none" stroke="black" points="640.61,-413 640.61,-432 673.61,-432 673.61,-413 640.61,-413"/>
<text text-anchor="start" x="643.61" y="-419.4" font-family="sans-serif" font-size="12.00">OHS</text>
</g>
<!-- SecurityManagementContext&#45;&gt;CustomerManagementContext -->
<g id="edge6" class="edge">
<title>SecurityManagementContext&#45;&gt;CustomerManagementContext</title>
<path fill="none" stroke="black" stroke-width="2" d="M779.88,-424.79C787.54,-414.63 791.18,-403.18 786.03,-391.19 782.59,-383.18 777.55,-375.72 771.77,-368.95"/>
<text text-anchor="middle" x="863.53" y="-394.59" font-family="sans-serif" font-size="12.00"> &#160;&#160;&#160;&#160;&#160;&#160;&#160;&#160;&#160;&#160;&#160;&#160;&#160;&#160;&#160;&#160;&#160;&#160;&#160;&#160;&#160;&#160;&#160;&#160;&#160;&#160;&#160;&#160;&#160;&#160;&#160;&#160;&#160;&#160;&#160;&#160;&#160;&#160;&#160;</text>
<polygon fill="white" stroke="transparent" points="748.77,-358.95 748.77,-377.95 764.77,-377.95 764.77,-358.95 748.77,-358.95"/>
<polyline fill="none" stroke="black" points="764.77,-358.95 764.77,-377.95 "/>
<text text-anchor="start" x="751.77" y="-365.35" font-family="sans-serif" font-size="12.00">D</text>
<polygon fill="white" stroke="transparent" points="764.77,-358.95 764.77,-377.95 794.77,-377.95 794.77,-358.95 764.77,-358.95"/>
<polygon fill="none" stroke="black" points="764.77,-358.95 764.77,-377.95 794.77,-377.95 794.77,-358.95 764.77,-358.95"/>
<text text-anchor="start" x="767.77" y="-365.35" font-family="sans-serif" font-size="12.00">ACL</text>
<polygon fill="white" stroke="transparent" points="744.88,-414.79 744.88,-433.79 760.88,-433.79 760.88,-414.79 744.88,-414.79"/>
<polyline fill="none" stroke="black" points="760.88,-414.79 760.88,-433.79 "/>
<text text-anchor="start" x="747.88" y="-421.19" font-family="sans-serif" font-size="12.00">U</text>
<polygon fill="white" stroke="transparent" points="760.88,-414.79 760.88,-433.79 815.88,-433.79 815.88,-414.79 760.88,-414.79"/>
<polygon fill="none" stroke="black" points="760.88,-414.79 760.88,-433.79 815.88,-433.79 815.88,-414.79 760.88,-414.79"/>
<text text-anchor="start" x="763.88" y="-421.19" font-family="sans-serif" font-size="12.00">OHS, PL</text>
</g>
<!-- ShippingManagementContext -->
<g id="node7" class="node">
<title>ShippingManagementContext</title>
<polygon fill="none" stroke="black" stroke-width="2" points="1115.03,-223.88 1103.93,-222.32 1093.2,-220.67 1082.9,-218.93 1073.06,-217.11 1063.73,-215.22 1054.95,-213.26 1046.74,-211.25 1039.16,-209.18 1032.21,-207.07 1025.94,-204.92 1020.37,-202.74 1015.51,-200.53 1011.38,-198.31 1008,-196.07 1005.38,-193.82 1003.52,-191.58 1002.42,-189.34 1002.08,-187.11 1002.49,-184.9 1003.65,-182.7 1005.55,-180.54 1008.16,-178.4 1011.47,-176.3 1015.45,-174.24 1020.08,-172.23 1025.34,-170.26 1031.19,-168.34 1037.6,-166.48 1044.54,-164.67 1051.97,-162.92 1059.86,-161.24 1068.16,-159.63 1076.85,-158.08 1085.87,-156.6 1095.2,-155.2 1104.79,-153.88 1114.61,-152.63 1124.61,-151.47 1134.77,-150.38 1145.04,-149.38 1155.38,-148.47 1165.78,-147.65 1176.19,-146.92 1186.58,-146.28 1196.93,-145.73 1207.21,-145.28 1217.39,-144.93 1227.46,-144.67 1237.38,-144.52 1247.15,-144.47 1256.74,-144.52 1266.14,-144.67 1275.33,-144.93 1284.31,-145.3 1293.06,-145.77 1301.57,-146.35 1309.84,-147.03 1317.86,-147.83 1325.62,-148.73 1333.12,-149.74 1340.35,-150.85 1347.31,-152.06 1354,-153.38 1360.41,-154.8 1366.54,-156.32 1372.38,-157.93 1377.94,-159.64 1383.2,-161.44 1388.16,-163.32 1392.83,-165.28 1397.18,-167.32 1401.21,-169.43 1404.92,-171.61 1408.3,-173.85 1411.34,-176.14 1414.03,-178.49 1416.35,-180.87 1418.3,-183.28 1419.86,-185.73 1421.03,-188.19 1421.78,-190.66 1422.11,-193.14 1422.01,-195.61 1421.45,-198.07 1420.43,-200.5 1418.94,-202.91 1416.96,-205.28 1414.48,-207.6 1411.5,-209.86 1408.01,-212.06 1403.99,-214.2 1399.45,-216.25 1394.38,-218.21 1388.78,-220.09 1382.66,-221.86 1376.01,-223.53 1368.84,-225.08 1361.16,-226.52 1352.99,-227.83 1344.33,-229.01 1335.2,-230.07 1325.63,-230.99 1315.63,-231.77 1305.24,-232.41 1294.48,-232.91 1283.38,-233.26 1271.97,-233.47 1260.3,-233.54 1248.39,-233.46 1236.3,-233.25 1224.06,-232.89 1211.72,-232.39 1199.32,-231.76 1186.92,-231 1174.55,-230.11 1162.28,-229.09 1150.14,-227.95 1138.18,-226.7 1126.47,-225.34 1115.03,-223.88"/>
<text text-anchor="middle" x="1227.03" y="-183.35" font-family="sans-serif" font-size="16.00">ShippingManagementContext</text>
</g>
<!-- ShippingManagementContext&#45;&gt;OrdersManagementContext -->
<g id="edge8" class="edge">
<title>ShippingManagementContext&#45;&gt;OrdersManagementContext</title>
<path fill="none" stroke="black" stroke-width="2" d="M1139.58,-149.81C1103.33,-135.65 1060.58,-120.1 1021.03,-108.63 977.1,-95.88 928.82,-84.67 884.09,-75.39"/>
<text text-anchor="middle" x="1117.03" y="-112.03" font-family="sans-serif" font-size="12.00">Customer/Supplier</text>
<polygon fill="white" stroke="transparent" points="877.09,-66.39 877.09,-83.39 891.09,-83.39 891.09,-66.39 877.09,-66.39"/>
<text text-anchor="start" x="879.09" y="-71.79" font-family="sans-serif" font-size="12.00">D</text>
<polygon fill="white" stroke="transparent" points="1132.58,-140.81 1132.58,-157.81 1146.58,-157.81 1146.58,-140.81 1132.58,-140.81"/>
<text text-anchor="start" x="1134.58" y="-146.21" font-family="sans-serif" font-size="12.00">U</text>
</g>
<!-- ShippingManagementContext&#45;&gt;InventoryManagementContext -->
<g id="edge7" class="edge">
<title>ShippingManagementContext&#45;&gt;InventoryManagementContext</title>
<path fill="none" stroke="black" stroke-width="2" d="M1215.84,-144.95C1211.11,-127.55 1205.6,-107.28 1200.81,-89.65"/>
<text text-anchor="middle" x="1284.53" y="-112.03" font-family="sans-serif" font-size="12.00"> &#160;&#160;&#160;&#160;&#160;&#160;&#160;&#160;&#160;&#160;&#160;&#160;&#160;&#160;&#160;&#160;&#160;&#160;&#160;&#160;&#160;&#160;&#160;&#160;&#160;&#160;&#160;&#160;&#160;&#160;&#160;&#160;&#160;&#160;&#160;&#160;&#160;&#160;&#160;</text>
<polygon fill="white" stroke="transparent" points="1181.81,-79.65 1181.81,-98.65 1197.81,-98.65 1197.81,-79.65 1181.81,-79.65"/>
<polyline fill="none" stroke="black" points="1197.81,-79.65 1197.81,-98.65 "/>
<text text-anchor="start" x="1184.81" y="-86.05" font-family="sans-serif" font-size="12.00">D</text>
<polygon fill="white" stroke="transparent" points="1197.81,-79.65 1197.81,-98.65 1219.81,-98.65 1219.81,-79.65 1197.81,-79.65"/>
<polygon fill="none" stroke="black" points="1197.81,-79.65 1197.81,-98.65 1219.81,-98.65 1219.81,-79.65 1197.81,-79.65"/>
<text text-anchor="start" x="1200.81" y="-86.05" font-family="sans-serif" font-size="12.00">CF</text>
<polygon fill="white" stroke="transparent" points="1180.84,-134.95 1180.84,-153.95 1196.84,-153.95 1196.84,-134.95 1180.84,-134.95"/>
<polyline fill="none" stroke="black" points="1196.84,-134.95 1196.84,-153.95 "/>
<text text-anchor="start" x="1183.84" y="-141.35" font-family="sans-serif" font-size="12.00">U</text>
<polygon fill="white" stroke="transparent" points="1196.84,-134.95 1196.84,-153.95 1251.84,-153.95 1251.84,-134.95 1196.84,-134.95"/>
<polygon fill="none" stroke="black" points="1196.84,-134.95 1196.84,-153.95 1251.84,-153.95 1251.84,-134.95 1196.84,-134.95"/>
<text text-anchor="start" x="1199.84" y="-141.35" font-family="sans-serif" font-size="12.00">OHS, PL</text>
</g>
</g>
</svg>
