<svg width="2000px" height="2059px"
 viewBox="0.00 0.00 375.24 385.68" xmlns="http://www.w3.org/2000/svg" xmlns:xlink="http://www.w3.org/1999/xlink">
<g id="graph0" class="graph" transform="scale(1.0 1.0) rotate(0) translate(4 381.68)">
<title>ContextMapGraph</title>
<polygon fill="white" stroke="transparent" points="-4,4 -4,-381.68 371.24,-381.68 371.24,4 -4,4"/>
<!-- GestionClientesContext -->
<g id="node1" class="node">
<title>GestionClientesContext</title>
<polygon fill="none" stroke="black" stroke-width="2" points="349.39,-195 349.05,-197.87 348.26,-200.73 347.01,-203.54 345.31,-206.31 343.16,-209.03 340.57,-211.67 337.54,-214.24 334.09,-216.72 330.22,-219.1 325.94,-221.38 321.26,-223.54 316.2,-225.58 310.77,-227.49 304.98,-229.28 298.85,-230.92 292.4,-232.42 285.64,-233.78 278.59,-234.99 271.28,-236.05 263.72,-236.96 255.94,-237.72 247.95,-238.33 239.78,-238.79 231.46,-239.11 223,-239.28 214.42,-239.31 205.77,-239.2 197.05,-238.96 188.29,-238.6 179.52,-238.11 170.76,-237.5 162.04,-236.78 153.38,-235.95 144.81,-235.02 136.35,-234 128.02,-232.89 119.85,-231.7 111.87,-230.43 104.08,-229.09 96.52,-227.69 89.2,-226.23 82.16,-224.71 75.39,-223.14 68.93,-221.53 62.8,-219.88 57,-218.19 51.55,-216.47 46.48,-214.72 41.78,-212.95 37.49,-211.15 33.6,-209.34 30.12,-207.5 27.07,-205.65 24.46,-203.79 22.28,-201.91 20.55,-200.02 19.27,-198.13 18.43,-196.22 18.06,-194.31 18.13,-192.39 18.66,-190.47 19.64,-188.55 21.06,-186.62 22.93,-184.69 25.24,-182.77 27.97,-180.85 31.12,-178.93 34.69,-177.03 38.66,-175.13 43.02,-173.25 47.75,-171.39 52.86,-169.55 58.31,-167.74 64.1,-165.96 70.21,-164.21 76.62,-162.51 83.32,-160.85 90.28,-159.25 97.5,-157.7 104.94,-156.21 112.6,-154.8 120.44,-153.47 128.46,-152.22 136.62,-151.06 144.9,-150 153.29,-149.04 161.76,-148.19 170.29,-147.46 178.85,-146.85 187.43,-146.37 196,-146.03 204.54,-145.82 213.02,-145.76 221.42,-145.84 229.73,-146.07 237.91,-146.46 245.95,-146.99 253.83,-147.69 261.52,-148.54 269,-149.55 276.26,-150.71 283.27,-152.03 290.01,-153.49 296.47,-155.1 302.63,-156.86 308.46,-158.75 313.97,-160.77 319.12,-162.91 323.91,-165.17 328.32,-167.54 332.34,-170.01 335.96,-172.57 339.16,-175.21 341.95,-177.92 344.3,-180.69 346.21,-183.5 347.68,-186.35 348.71,-189.22 349.28,-192.11 349.39,-195"/>
<text text-anchor="middle" x="183.62" y="-189.17" font-family="sans-serif" font-size="16.00">GestionClientesContext</text>
</g>
<!-- GestionEnviosContext -->
<g id="node2" class="node">
<title>GestionEnviosContext</title>
<polygon fill="none" stroke="black" stroke-width="2" points="311.86,-23.04 317.92,-25.36 323.6,-27.73 328.86,-30.14 333.68,-32.59 338.04,-35.07 341.93,-37.57 345.31,-40.08 348.18,-42.59 350.53,-45.09 352.34,-47.57 353.6,-50.03 354.31,-52.46 354.46,-54.84 354.05,-57.19 353.09,-59.47 351.58,-61.7 349.51,-63.87 346.91,-65.96 343.78,-67.99 340.14,-69.93 336,-71.8 331.38,-73.57 326.29,-75.27 320.77,-76.87 314.83,-78.38 308.5,-79.8 301.8,-81.12 294.76,-82.36 287.42,-83.49 279.79,-84.54 271.92,-85.48 263.82,-86.34 255.54,-87.1 247.1,-87.77 238.54,-88.34 229.89,-88.83 221.17,-89.22 212.41,-89.52 203.66,-89.74 194.92,-89.87 186.24,-89.91 177.64,-89.87 169.15,-89.74 160.79,-89.52 152.57,-89.22 144.53,-88.84 136.69,-88.38 129.05,-87.83 121.65,-87.2 114.49,-86.49 107.59,-85.7 100.97,-84.83 94.62,-83.87 88.57,-82.83 82.82,-81.71 77.38,-80.51 72.25,-79.23 67.44,-77.87 62.96,-76.43 58.8,-74.91 54.97,-73.32 51.47,-71.65 48.3,-69.9 45.46,-68.09 42.94,-66.2 40.76,-64.25 38.91,-62.23 37.38,-60.16 36.18,-58.02 35.3,-55.84 34.75,-53.61 34.51,-51.33 34.6,-49.02 35,-46.68 35.73,-44.31 36.77,-41.93 38.12,-39.54 39.79,-37.15 41.78,-34.76 44.08,-32.38 46.69,-30.03 49.61,-27.7 52.84,-25.42 56.39,-23.18 60.24,-20.99 64.4,-18.88 68.86,-16.83 73.62,-14.87 78.68,-13 84.03,-11.23 89.66,-9.56 95.58,-8.01 101.77,-6.58 108.23,-5.28 114.94,-4.11 121.9,-3.08 129.09,-2.19 136.5,-1.46 144.11,-0.87 151.91,-0.45 159.89,-0.18 168.01,-0.07 176.27,-0.12 184.63,-0.34 193.08,-0.71 201.6,-1.24 210.15,-1.93 218.71,-2.78 227.26,-3.78 235.76,-4.92 244.19,-6.2 252.52,-7.62 260.71,-9.17 268.75,-10.85 276.59,-12.64 284.2,-14.53 291.57,-16.53 298.65,-18.62 305.42,-20.8 311.86,-23.04"/>
<text text-anchor="middle" x="183.62" y="-44.63" font-family="sans-serif" font-size="16.00">GestionEnviosContext</text>
</g>
<!-- GestionClientesContext&#45;&gt;GestionEnviosContext -->
<g id="edge1" class="edge">
<title>GestionClientesContext&#45;&gt;GestionEnviosContext</title>
<path fill="none" stroke="black" stroke-width="2" d="M183.62,-146.48C183.62,-128.39 183.62,-107.74 183.62,-90.16"/>
<text text-anchor="middle" x="259.12" y="-118.26" font-family="sans-serif" font-size="12.00"> &#160;&#160;&#160;&#160;&#160;&#160;&#160;&#160;&#160;&#160;&#160;&#160;&#160;&#160;&#160;&#160;&#160;&#160;&#160;&#160;&#160;&#160;&#160;&#160;&#160;&#160;&#160;&#160;&#160;&#160;&#160;&#160;&#160;&#160;&#160;&#160;&#160;&#160;&#160;</text>
<polygon fill="white" stroke="transparent" points="176.62,-81.16 176.62,-98.16 190.62,-98.16 190.62,-81.16 176.62,-81.16"/>
<text text-anchor="start" x="178.62" y="-86.56" font-family="sans-serif" font-size="12.00">D</text>
<polygon fill="white" stroke="transparent" points="159.62,-136.48 159.62,-155.48 175.62,-155.48 175.62,-136.48 159.62,-136.48"/>
<polyline fill="none" stroke="black" points="175.62,-136.48 175.62,-155.48 "/>
<text text-anchor="start" x="162.62" y="-142.88" font-family="sans-serif" font-size="12.00">U</text>
<polygon fill="white" stroke="transparent" points="175.62,-136.48 175.62,-155.48 208.62,-155.48 208.62,-136.48 175.62,-136.48"/>
<polygon fill="none" stroke="black" points="175.62,-136.48 175.62,-155.48 208.62,-155.48 208.62,-136.48 175.62,-136.48"/>
<text text-anchor="start" x="178.62" y="-142.88" font-family="sans-serif" font-size="12.00">OHS</text>
</g>
<!-- GestionOrdenesContext -->
<g id="node3" class="node">
<title>GestionOrdenesContext</title>
<polygon fill="none" stroke="black" stroke-width="2" points="135.49,-375.28 124.92,-374.5 114.56,-373.62 104.43,-372.62 94.59,-371.52 85.06,-370.32 75.9,-369.02 67.14,-367.63 58.8,-366.15 50.93,-364.59 43.55,-362.95 36.69,-361.23 30.37,-359.44 24.61,-357.6 19.43,-355.69 14.85,-353.72 10.86,-351.71 7.5,-349.66 4.74,-347.57 2.61,-345.44 1.09,-343.29 0.18,-341.12 -0.12,-338.93 0.17,-336.73 1.05,-334.52 2.48,-332.32 4.47,-330.12 6.99,-327.93 10.01,-325.76 13.51,-323.61 17.47,-321.48 21.87,-319.39 26.67,-317.33 31.85,-315.31 37.39,-313.35 43.24,-311.43 49.39,-309.56 55.81,-307.76 62.46,-306.02 69.33,-304.35 76.38,-302.76 83.59,-301.24 90.94,-299.8 98.39,-298.45 105.94,-297.18 113.56,-296.01 121.23,-294.93 128.93,-293.95 136.65,-293.08 144.37,-292.3 152.07,-291.63 159.75,-291.08 167.4,-290.63 175,-290.29 182.54,-290.07 190.02,-289.97 197.44,-289.98 204.77,-290.11 212.03,-290.35 219.2,-290.71 226.28,-291.19 233.27,-291.79 240.16,-292.5 246.94,-293.33 253.62,-294.27 260.18,-295.32 266.63,-296.48 272.94,-297.75 279.13,-299.12 285.17,-300.59 291.06,-302.16 296.79,-303.81 302.35,-305.56 307.73,-307.39 312.91,-309.3 317.88,-311.28 322.62,-313.33 327.12,-315.44 331.36,-317.61 335.32,-319.83 338.99,-322.09 342.35,-324.39 345.37,-326.71 348.03,-329.06 350.33,-331.43 352.23,-333.8 353.72,-336.18 354.79,-338.55 355.4,-340.9 355.55,-343.24 355.23,-345.55 354.41,-347.82 353.09,-350.06 351.25,-352.24 348.88,-354.37 345.99,-356.44 342.56,-358.44 338.59,-360.37 334.08,-362.21 329.05,-363.97 323.48,-365.65 317.4,-367.22 310.82,-368.7 303.74,-370.07 296.19,-371.34 288.19,-372.49 279.76,-373.53 270.93,-374.45 261.72,-375.25 252.17,-375.93 242.32,-376.49 232.19,-376.93 221.83,-377.24 211.27,-377.42 200.56,-377.48 189.74,-377.42 178.85,-377.23 167.93,-376.92 157.04,-376.49 146.21,-375.95 135.49,-375.28"/>
<text text-anchor="middle" x="183.62" y="-329.58" font-family="sans-serif" font-size="16.00">GestionOrdenesContext</text>
</g>
<!-- GestionOrdenesContext&#45;&gt;GestionClientesContext -->
<g id="edge2" class="edge">
<title>GestionOrdenesContext&#45;&gt;GestionClientesContext</title>
<path fill="none" stroke="black" stroke-width="2" d="M183.62,-289.72C183.62,-273.52 183.62,-255.02 183.62,-238.64"/>
<text text-anchor="middle" x="218.12" y="-261.47" font-family="sans-serif" font-size="12.00">Partnership</text>
</g>
</g>
</svg>
