<svg width="2000px" height="1926px"
 viewBox="0.00 0.00 405.09 389.61" xmlns="http://www.w3.org/2000/svg" xmlns:xlink="http://www.w3.org/1999/xlink">
<g id="graph0" class="graph" transform="scale(1.0 1.0) rotate(0) translate(4 385.61)">
<title>ContextMapGraph</title>
<polygon fill="white" stroke="transparent" points="-4,4 -4,-385.61 401.09,-385.61 401.09,4 -4,4"/>
<!-- GestionFondosContext -->
<g id="node1" class="node">
<title>GestionFondosContext</title>
<polygon fill="none" stroke="black" stroke-width="2" points="326.39,-21.74 332.89,-23.99 339,-26.29 344.69,-28.65 349.93,-31.04 354.7,-33.47 358.99,-35.92 362.77,-38.39 366.03,-40.86 368.75,-43.33 370.91,-45.78 372.52,-48.22 373.55,-50.63 374.01,-53.01 373.9,-55.34 373.21,-57.63 371.95,-59.87 370.11,-62.05 367.72,-64.16 364.78,-66.2 361.31,-68.18 357.31,-70.07 352.82,-71.89 347.83,-73.63 342.39,-75.28 336.51,-76.84 330.22,-78.31 323.54,-79.7 316.51,-81 309.14,-82.2 301.48,-83.31 293.55,-84.33 285.39,-85.26 277.02,-86.1 268.48,-86.85 259.8,-87.5 251.01,-88.07 242.15,-88.55 233.24,-88.93 224.31,-89.23 215.4,-89.45 206.54,-89.57 197.74,-89.61 189.04,-89.57 180.46,-89.43 172.03,-89.22 163.76,-88.92 155.68,-88.53 147.81,-88.06 140.16,-87.5 132.75,-86.87 125.6,-86.14 118.71,-85.34 112.1,-84.44 105.78,-83.47 99.76,-82.41 94.04,-81.27 88.64,-80.04 83.55,-78.73 78.78,-77.34 74.33,-75.87 70.21,-74.32 66.42,-72.69 62.96,-70.98 59.82,-69.2 57.01,-67.35 54.53,-65.42 52.38,-63.43 50.55,-61.38 49.05,-59.26 47.87,-57.1 47.02,-54.88 46.49,-52.61 46.28,-50.31 46.4,-47.97 46.83,-45.61 47.59,-43.23 48.67,-40.83 50.07,-38.43 51.8,-36.03 53.84,-33.64 56.21,-31.27 58.9,-28.93 61.91,-26.62 65.25,-24.35 68.91,-22.14 72.89,-19.99 77.18,-17.91 81.8,-15.91 86.73,-14 91.98,-12.18 97.53,-10.47 103.38,-8.86 109.52,-7.38 115.96,-6.02 122.67,-4.79 129.65,-3.69 136.89,-2.74 144.37,-1.94 152.07,-1.28 160,-0.78 168.11,-0.44 176.4,-0.25 184.85,-0.22 193.43,-0.35 202.12,-0.64 210.89,-1.09 219.72,-1.7 228.58,-2.46 237.45,-3.37 246.29,-4.42 255.07,-5.62 263.76,-6.95 272.34,-8.42 280.76,-10.01 289.01,-11.72 297.03,-13.53 304.82,-15.45 312.33,-17.47 319.53,-19.57 326.39,-21.74"/>
<text text-anchor="middle" x="198.55" y="-44.48" font-family="sans-serif" font-size="16.00">GestionFondosContext</text>
</g>
<!-- GestionProyectosContext -->
<g id="node2" class="node">
<title>GestionProyectosContext</title>
<polygon fill="none" stroke="black" stroke-width="2" points="372.67,-191.46 373.31,-194.34 373.46,-197.2 373.13,-200.04 372.3,-202.85 370.99,-205.61 369.2,-208.31 366.92,-210.94 364.16,-213.5 360.93,-215.97 357.24,-218.34 353.09,-220.61 348.5,-222.76 343.47,-224.8 338.03,-226.71 332.19,-228.5 325.95,-230.15 319.35,-231.66 312.4,-233.03 305.12,-234.26 297.52,-235.34 289.64,-236.28 281.5,-237.07 273.11,-237.72 264.51,-238.23 255.72,-238.6 246.76,-238.83 237.66,-238.92 228.46,-238.89 219.17,-238.72 209.83,-238.44 200.46,-238.03 191.09,-237.51 181.74,-236.89 172.46,-236.16 163.25,-235.34 154.16,-234.43 145.2,-233.42 136.4,-232.34 127.8,-231.19 119.4,-229.96 111.25,-228.67 103.35,-227.32 95.73,-225.91 88.42,-224.45 81.43,-222.94 74.78,-221.39 68.49,-219.8 62.58,-218.17 57.06,-216.51 51.94,-214.82 47.24,-213.09 42.98,-211.34 39.15,-209.56 35.77,-207.76 32.84,-205.94 30.38,-204.1 28.39,-202.23 26.86,-200.35 25.81,-198.45 25.22,-196.53 25.11,-194.6 25.47,-192.66 26.3,-190.7 27.59,-188.73 29.33,-186.76 31.53,-184.78 34.17,-182.79 37.24,-180.81 40.74,-178.82 44.65,-176.85 48.97,-174.88 53.67,-172.92 58.75,-170.99 64.19,-169.07 69.98,-167.19 76.1,-165.34 82.54,-163.53 89.27,-161.76 96.29,-160.05 103.56,-158.4 111.08,-156.81 118.83,-155.29 126.78,-153.86 134.92,-152.51 143.22,-151.26 151.66,-150.11 160.23,-149.07 168.9,-148.14 177.65,-147.34 186.46,-146.66 195.31,-146.11 204.17,-145.71 213.02,-145.45 221.84,-145.34 230.61,-145.38 239.3,-145.57 247.9,-145.92 256.38,-146.43 264.72,-147.11 272.89,-147.94 280.88,-148.93 288.67,-150.08 296.23,-151.39 303.54,-152.85 310.59,-154.46 317.35,-156.21 323.81,-158.1 329.94,-160.12 335.73,-162.27 341.16,-164.53 346.22,-166.9 350.88,-169.37 355.15,-171.93 358.99,-174.57 362.41,-177.28 365.38,-180.05 367.9,-182.86 369.96,-185.71 371.56,-188.58 372.67,-191.46"/>
<text text-anchor="middle" x="198.55" y="-189.47" font-family="sans-serif" font-size="16.00">GestionProyectosContext</text>
</g>
<!-- GestionProyectosContext&#45;&gt;GestionFondosContext -->
<g id="edge1" class="edge">
<title>GestionProyectosContext&#45;&gt;GestionFondosContext</title>
<path fill="none" stroke="black" stroke-width="2" d="M198.55,-145.84C198.55,-127.74 198.55,-107.18 198.55,-89.7"/>
<text text-anchor="middle" x="233.05" y="-117.95" font-family="sans-serif" font-size="12.00">Partnership</text>
</g>
<!-- GestionSeguridadContext -->
<g id="node3" class="node">
<title>GestionSeguridadContext</title>
<polygon fill="none" stroke="black" stroke-width="2" points="257.75,-377.08 246.79,-378.07 235.75,-378.94 224.65,-379.68 213.54,-380.29 202.47,-380.78 191.48,-381.13 180.6,-381.35 169.89,-381.43 159.37,-381.37 149.08,-381.17 139.06,-380.83 129.34,-380.35 119.95,-379.74 110.92,-378.98 102.27,-378.1 94.01,-377.08 86.19,-375.93 78.8,-374.66 71.86,-373.27 65.39,-371.76 59.4,-370.14 53.88,-368.41 48.85,-366.59 44.31,-364.67 40.25,-362.66 36.68,-360.58 33.59,-358.42 30.98,-356.2 28.83,-353.93 27.13,-351.6 25.89,-349.23 25.08,-346.83 24.7,-344.41 24.73,-341.97 25.16,-339.52 25.97,-337.07 27.16,-334.63 28.71,-332.21 30.61,-329.8 32.84,-327.43 35.4,-325.1 38.26,-322.81 41.43,-320.58 44.88,-318.4 48.62,-316.28 52.63,-314.24 56.9,-312.26 61.43,-310.37 66.21,-308.57 71.23,-306.85 76.5,-305.22 81.99,-303.69 87.72,-302.25 93.68,-300.92 99.86,-299.69 106.26,-298.56 112.87,-297.54 119.7,-296.63 126.74,-295.83 133.98,-295.13 141.42,-294.55 149.06,-294.07 156.88,-293.7 164.88,-293.44 173.04,-293.29 181.37,-293.24 189.84,-293.3 198.45,-293.46 207.17,-293.72 216,-294.09 224.91,-294.56 233.88,-295.12 242.9,-295.78 251.93,-296.53 260.96,-297.37 269.96,-298.31 278.89,-299.33 287.74,-300.43 296.47,-301.62 305.05,-302.89 313.45,-304.23 321.63,-305.65 329.56,-307.15 337.21,-308.71 344.55,-310.34 351.53,-312.03 358.14,-313.79 364.32,-315.6 370.06,-317.47 375.32,-319.39 380.08,-321.35 384.3,-323.36 387.96,-325.41 391.04,-327.5 393.52,-329.62 395.37,-331.76 396.58,-333.93 397.14,-336.11 397.04,-338.31 396.26,-340.51 394.82,-342.72 392.7,-344.92 389.91,-347.11 386.45,-349.29 382.34,-351.45 377.59,-353.58 372.21,-355.68 366.22,-357.74 359.64,-359.75 352.51,-361.71 344.84,-363.61 336.68,-365.45 328.05,-367.21 318.98,-368.9 309.52,-370.51 299.71,-372.02 289.58,-373.44 279.18,-374.76 268.56,-375.98 257.75,-377.08"/>
<text text-anchor="middle" x="198.55" y="-332" font-family="sans-serif" font-size="16.00">GestionSeguridadContext</text>
</g>
<!-- GestionSeguridadContext&#45;&gt;GestionProyectosContext -->
<g id="edge2" class="edge">
<title>GestionSeguridadContext&#45;&gt;GestionProyectosContext</title>
<path fill="none" stroke="black" stroke-width="2" d="M198.55,-293.4C198.55,-276.07 198.55,-255.91 198.55,-238.31"/>
<text text-anchor="middle" x="274.05" y="-262.39" font-family="sans-serif" font-size="12.00"> &#160;&#160;&#160;&#160;&#160;&#160;&#160;&#160;&#160;&#160;&#160;&#160;&#160;&#160;&#160;&#160;&#160;&#160;&#160;&#160;&#160;&#160;&#160;&#160;&#160;&#160;&#160;&#160;&#160;&#160;&#160;&#160;&#160;&#160;&#160;&#160;&#160;&#160;&#160;</text>
<polygon fill="white" stroke="transparent" points="175.55,-228.31 175.55,-247.31 191.55,-247.31 191.55,-228.31 175.55,-228.31"/>
<polyline fill="none" stroke="black" points="191.55,-228.31 191.55,-247.31 "/>
<text text-anchor="start" x="178.55" y="-234.71" font-family="sans-serif" font-size="12.00">D</text>
<polygon fill="white" stroke="transparent" points="191.55,-228.31 191.55,-247.31 221.55,-247.31 221.55,-228.31 191.55,-228.31"/>
<polygon fill="none" stroke="black" points="191.55,-228.31 191.55,-247.31 221.55,-247.31 221.55,-228.31 191.55,-228.31"/>
<text text-anchor="start" x="194.55" y="-234.71" font-family="sans-serif" font-size="12.00">ACL</text>
<polygon fill="white" stroke="transparent" points="174.55,-283.4 174.55,-302.4 190.55,-302.4 190.55,-283.4 174.55,-283.4"/>
<polyline fill="none" stroke="black" points="190.55,-283.4 190.55,-302.4 "/>
<text text-anchor="start" x="177.55" y="-289.8" font-family="sans-serif" font-size="12.00">U</text>
<polygon fill="white" stroke="transparent" points="190.55,-283.4 190.55,-302.4 223.55,-302.4 223.55,-283.4 190.55,-283.4"/>
<polygon fill="none" stroke="black" points="190.55,-283.4 190.55,-302.4 223.55,-302.4 223.55,-283.4 190.55,-283.4"/>
<text text-anchor="start" x="193.55" y="-289.8" font-family="sans-serif" font-size="12.00">OHS</text>
</g>
</g>
</svg>
